<?xml version="1.0" encoding="iso-8859-1"?>
<!-- Generator: Adobe Illustrator 19.0.0, SVG Export Plug-In . SVG Version: 6.00 Build 0)  -->
<svg version="1.1" id="Layer_1" xmlns="http://www.w3.org/2000/svg" xmlns:xlink="http://www.w3.org/1999/xlink" x="0px" y="0px"
	 viewBox="0 0 512.001 512.001" style="enable-background:new 0 0 512.001 512.001;" xml:space="preserve">
<g>
	<g>
		<path d="M306.869,71.698c-6.489,0-10.312,3.592-10.312,11.588v30.708c0,7.995,3.824,11.587,10.312,11.587
			c6.49,0,10.43-3.592,10.43-11.587V83.286C317.298,75.29,313.359,71.698,306.869,71.698z"/>
	</g>
</g>
<g>
	<g>
		<path d="M240.938,71.698c-6.489,0-10.312,3.592-10.312,11.588v30.708c0,7.995,3.824,11.587,10.312,11.587
			c6.49,0,10.43-3.592,10.43-11.587V83.286C251.369,75.29,247.428,71.698,240.938,71.698z"/>
	</g>
</g>
<g>
	<g>
		<path d="M306.869,375.236c-6.489,0-10.312,3.592-10.312,11.588v30.708c0,7.995,3.824,11.587,10.312,11.587
			c6.49,0,10.43-3.592,10.43-11.587v-30.708C317.298,378.828,313.359,375.236,306.869,375.236z"/>
	</g>
</g>
<g>
	<g>
		<path d="M507.08,145.041L366.959,4.921c-3.15-3.15-7.424-4.92-11.879-4.92H156.921c-4.457,0-8.73,1.771-11.879,4.922
			L4.922,145.042C1.77,148.192,0,152.466,0,156.922v198.159c0,4.457,1.77,8.729,4.922,11.879l140.12,140.119
			c3.151,3.151,7.424,4.922,11.879,4.922H355.08c4.457,0,8.73-1.771,11.879-4.922L507.08,366.96
			c3.151-3.151,4.922-7.424,4.922-11.879V156.922C512,152.466,510.23,148.192,507.08,145.041z M155.754,271.121
			c0,45.085-36.68,81.765-81.765,81.765c-9.279,0-16.801-7.522-16.801-16.801V175.916c0-9.279,7.522-16.801,16.801-16.801
			c45.085,0,81.765,36.68,81.765,81.765V271.121z M212.55,83.286c0-19.93,12.398-27.347,28.389-27.347
			c15.991,0,28.506,7.416,28.506,27.347v30.708c0,19.93-12.514,27.346-28.506,27.346c-15.99,0-28.389-7.416-28.389-27.346V83.286z
			 M202.123,438.621h-0.001c0,3.709-4.519,5.562-9.038,5.562c-4.519,0-9.038-1.854-9.038-5.562v-58.98l-3.36,2.086
			c-1.044,0.696-2.086,0.927-2.898,0.927c-3.36,0-5.678-3.592-5.678-7.184c0-2.433,1.044-4.751,3.36-6.141l15.296-9.27
			c0.927-0.58,2.086-0.811,3.36-0.811c3.708,0,7.996,2.201,7.996,5.678V438.621z M202.123,135.083h-0.001
			c0,3.709-4.519,5.562-9.038,5.562c-4.519,0-9.038-1.854-9.038-5.562v-58.98l-3.36,2.086c-1.044,0.696-2.086,0.927-2.898,0.927
			c-3.36,0-5.678-3.592-5.678-7.184c0-2.433,1.044-4.751,3.36-6.141l15.296-9.27c0.927-0.58,2.086-0.811,3.36-0.811
			c3.708,0,7.996,2.201,7.996,5.678V135.083z M256,207.852c26.591,0,48.148,21.557,48.148,48.148S282.591,304.149,256,304.149
			s-48.148-21.557-48.148-48.148C207.852,229.409,229.409,207.852,256,207.852z M269.445,417.531
			c0,19.93-12.514,27.346-28.506,27.346c-15.99,0-28.389-7.416-28.389-27.346v-30.708c0-19.93,12.398-27.348,28.389-27.348
			c15.991,0,28.506,7.416,28.506,27.348V417.531z M335.375,417.531c0,19.93-12.514,27.346-28.506,27.346
			c-15.99,0-28.389-7.416-28.389-27.346v-30.708c0-19.93,12.398-27.348,28.389-27.348c15.991,0,28.506,7.416,28.506,27.348V417.531z
			 M335.375,113.993c0,19.93-12.514,27.346-28.506,27.346c-15.99,0-28.389-7.416-28.389-27.346V83.286
			c0-19.93,12.398-27.347,28.389-27.347c15.991,0,28.506,7.416,28.506,27.347V113.993z M454.812,336.085
			c0,9.279-7.522,16.801-16.801,16.801c-45.085,0-81.765-36.68-81.765-81.765V240.88c0-45.085,36.68-81.765,81.765-81.765
			c9.279,0,16.801,7.522,16.801,16.801V336.085z"/>
	</g>
</g>
<g>
	<g>
		<path d="M240.938,375.236c-6.489,0-10.312,3.592-10.312,11.588v30.708c0,7.995,3.824,11.587,10.312,11.587
			c6.49,0,10.43-3.592,10.43-11.587v-30.708C251.369,378.828,247.428,375.236,240.938,375.236z"/>
	</g>
</g>
<g>
</g>
<g>
</g>
<g>
</g>
<g>
</g>
<g>
</g>
<g>
</g>
<g>
</g>
<g>
</g>
<g>
</g>
<g>
</g>
<g>
</g>
<g>
</g>
<g>
</g>
<g>
</g>
<g>
</g>
</svg>
